<svg width="100" height="100" viewBox="0 0 100 100" fill="none" xmlns="http://www.w3.org/2000/svg">
<g clip-path="url(#clip0_19_57)">
<path d="M62.1219 7.16897C58.4393 0.8405 57.5625 0 50.0658 0H49.9781H49.8904C42.3937 0 41.5607 0.8405 37.8343 7.16897C34.3709 13.1019 0 84.0994 0 86.0771C0 88.9447 0.657606 91.6639 3.02499 95.5204C5.43621 99.4262 9.60105 101.602 12.626 98.1407C14.6865 95.817 36.7383 52.9515 47.3915 36.7348C48.6629 34.7077 51.2933 34.7077 52.6085 36.7348C63.2617 52.9515 85.3135 95.817 87.374 98.1407C90.3989 101.602 94.5638 99.4262 96.975 95.5204C99.3424 91.6639 100 88.9447 100 86.0771C99.9562 84.0994 65.5853 13.0525 62.1219 7.16897Z" fill="#1173B6"/>
</g>
<defs>
<clipPath id="clip0_19_57">
<rect width="100" height="100" fill="white"/>
</clipPath>
</defs>
</svg>
