<svg width="30" height="30" viewBox="0 0 30 30" fill="none" xmlns="http://www.w3.org/2000/svg">
<g clip-path="url(#clip0_52_17)">
<path d="M15 0.600006C7.04698 0.600006 0.599976 7.04701 0.599976 15C0.599976 22.953 7.04698 29.4 15 29.4C22.953 29.4 29.4 22.953 29.4 15C29.4 7.04701 22.953 0.600006 15 0.600006ZM11.475 20.9685H8.55898V11.5845H11.475V20.9685ZM9.99898 10.4325C9.07798 10.4325 8.48248 9.78001 8.48248 8.97301C8.48248 8.14951 9.09598 7.51651 10.0365 7.51651C10.977 7.51651 11.553 8.14951 11.571 8.97301C11.571 9.78001 10.977 10.4325 9.99898 10.4325ZM22.125 20.9685H19.209V15.768C19.209 14.5575 18.786 13.7355 17.7315 13.7355C16.926 13.7355 16.4475 14.292 16.236 14.8275C16.158 15.018 16.1385 15.288 16.1385 15.5565V20.967H13.221V14.577C13.221 13.4055 13.1835 12.426 13.1445 11.583H15.678L15.8115 12.8865H15.87C16.254 12.2745 17.1945 11.3715 18.768 11.3715C20.6865 11.3715 22.125 12.657 22.125 15.42V20.9685V20.9685Z" fill="#666666"/>
</g>
<defs>
<clipPath id="clip0_52_17">
<rect width="30" height="30" fill="white"/>
</clipPath>
</defs>
</svg>
