<svg width="100" height="100" viewBox="0 0 100 100" fill="none" xmlns="http://www.w3.org/2000/svg">
<g clip-path="url(#clip0_19_15)">
<path d="M50 99.8145C48.4472 99.8145 46.9979 99.4477 45.6522 98.8058L31.8841 91.5615C29.8137 90.5528 30.8489 90.1861 31.47 90.0027C34.265 89.1774 34.7826 88.994 37.6812 87.5268C37.9917 87.3434 38.4058 87.4351 38.7164 87.6185L49.2754 93.2121C49.6894 93.3955 50.207 93.3955 50.5176 93.2121L91.8219 72.0296C92.236 71.8462 92.4431 71.4794 92.4431 71.0209V28.7477C92.4431 28.2892 92.236 27.9224 91.8219 27.739L50.5176 6.64818C50.1035 6.46479 49.5859 6.46479 49.2754 6.64818L7.97101 27.739C7.55694 27.9224 7.3499 28.3809 7.3499 28.7477V71.0209C7.3499 71.3877 7.55694 71.8462 7.97101 72.0296L19.2547 77.8067C25.3623 80.5576 29.1925 77.3482 29.1925 74.1387V32.4156C29.1925 31.8654 29.7101 31.3152 30.4348 31.3152H35.7143C36.3354 31.3152 36.9565 31.7737 36.9565 32.4156V74.1387C36.9565 81.3829 32.5052 85.6011 24.7412 85.6011C22.3602 85.6011 20.4969 85.6011 15.2174 83.3086L4.34783 77.8067C1.65631 76.4312 0 73.8636 0 71.1126V28.8394C0 26.0884 1.65631 23.5208 4.34783 22.1453L45.6522 0.96284C48.2402 -0.320947 51.7598 -0.320947 54.3478 0.96284L95.6522 22.1453C98.3437 23.5208 100 26.0884 100 28.8394V71.1126C100 73.8636 98.3437 76.4312 95.6522 77.8067L54.3478 98.9892C53.0021 99.5394 51.4493 99.8145 50 99.8145ZM62.7329 70.7458C44.617 70.7458 40.8903 63.4099 40.8903 57.1744C40.8903 56.6242 41.4079 56.074 42.1325 56.074H47.5155C48.1366 56.074 48.6542 56.4408 48.6542 56.991C49.4824 61.851 51.8634 64.2352 62.8364 64.2352C71.5321 64.2352 75.2588 62.4929 75.2588 58.3665C75.2588 55.9823 74.2236 54.24 60.6625 53.0479C49.3789 52.0392 42.3395 49.8385 42.3395 41.8606C42.3395 34.433 49.3789 30.0315 61.1801 30.0315C74.4306 30.0315 80.9524 34.0662 81.7805 42.8693C81.7805 43.1444 81.677 43.4195 81.47 43.6946C81.2629 43.878 80.9524 44.0614 80.6418 44.0614H75.2588C74.7412 44.0614 74.2236 43.6946 74.1201 43.2361C72.8778 38.1927 69.6687 36.5421 61.1801 36.5421C51.6563 36.5421 50.5176 39.4765 50.5176 41.6772C50.5176 44.3365 51.8634 45.1618 64.6998 46.629C77.4327 48.0962 83.4369 50.2052 83.4369 58.0914C83.3333 66.1609 75.8799 70.7458 62.7329 70.7458Z" fill="#539E43"/>
</g>
<defs>
<clipPath id="clip0_19_15">
<rect width="100" height="100" fill="white"/>
</clipPath>
</defs>
</svg>
