<svg width="100" height="100" viewBox="0 0 100 100" fill="none" xmlns="http://www.w3.org/2000/svg">
<g clip-path="url(#clip0_19_2)">
<path d="M82.2201 32.3788C81.1827 31.9779 80.1078 31.5985 79.001 31.2398C79.1829 30.4062 79.3498 29.5834 79.4983 28.7745C81.9351 15.4934 80.3418 4.79397 74.9013 1.27127C69.6845 -2.10653 61.1529 1.41537 52.5363 9.83499C51.7077 10.6446 50.8768 11.5018 50.0463 12.4002C49.4929 11.8058 48.9404 11.2314 48.3893 10.682C39.3589 1.67918 30.3073 -2.11473 24.8721 1.41816C19.6603 4.80576 18.1169 14.8642 20.3104 27.4509C20.5222 28.6666 20.7698 29.9081 21.0498 31.1704C19.7687 31.5788 18.532 32.014 17.3486 32.4771C6.76146 36.6216 0 43.117 0 49.8544C0 56.8128 7.25843 63.7923 18.2858 68.0243C19.156 68.3582 20.059 68.674 20.9896 68.9738C20.6875 70.339 20.4248 71.6769 20.2043 72.9818C18.1128 85.35 19.7461 95.1708 24.944 98.537C30.313 102.013 39.3236 98.4401 48.0977 89.8286C48.7912 89.1479 49.4872 88.426 50.1844 87.6693C51.0881 88.6465 51.9904 89.5712 52.8879 90.4386C61.3866 98.6501 69.7805 101.966 74.9736 98.5904C80.3372 95.1041 82.0803 84.5542 79.8173 71.7185C79.6444 70.7382 79.4433 69.7367 79.2174 68.7174C79.8502 68.5073 80.4714 68.2905 81.0771 68.0651C92.5411 63.8003 100 56.9058 100 49.8544C100 43.0926 93.0205 36.5534 82.2201 32.3788ZM79.7336 63.5121C79.1868 63.7153 78.6257 63.9118 78.054 64.1023C76.7884 59.6037 75.0804 54.8201 72.9901 49.8778C74.9848 45.0532 76.6268 40.3307 77.857 35.8613C78.8799 36.1937 79.8728 36.5442 80.8295 36.9142C90.0833 40.491 95.728 45.7795 95.728 49.8544C95.728 54.1949 89.6319 59.8295 79.7336 63.5121ZM75.6265 72.65C76.6272 78.3258 76.7701 83.4573 76.1072 87.4689C75.5117 91.0735 74.3139 93.4768 72.833 94.4393C69.6815 96.4875 62.9421 93.8252 55.6739 86.8026C54.8407 85.9975 54.0014 85.1379 53.1595 84.2282C55.9772 80.768 58.7933 76.7455 61.5418 72.2781C66.3761 71.7964 70.9433 71.009 75.0852 69.9339C75.2892 70.8579 75.4704 71.764 75.6265 72.65ZM34.0923 94.0854C31.0132 95.3063 28.561 95.3413 27.0786 94.3816C23.9243 92.3388 22.6129 84.4536 24.4017 73.8763C24.6065 72.665 24.8504 71.4207 25.1315 70.1488C29.2279 71.1659 33.7617 71.8977 38.6076 72.3388C41.3745 76.7103 44.272 80.7285 47.1919 84.2468C46.5539 84.9383 45.9185 85.5966 45.2866 86.217C41.4068 90.0249 37.5187 92.7265 34.0923 94.0854ZM19.6674 63.4855C14.7913 61.6142 10.7645 59.1822 8.00424 56.5282C5.52401 54.1433 4.27179 51.7756 4.27179 49.8544C4.27179 45.7659 9.70057 40.551 18.7548 37.0065C19.8534 36.5764 21.0035 36.1711 22.197 35.7904C23.4483 40.3607 25.0898 45.1391 27.0707 49.9711C25.0642 54.8748 23.3993 59.7294 22.1357 64.3533C21.2849 64.0787 20.4606 63.7897 19.6674 63.4855ZM24.5028 26.5297C22.6235 15.7458 23.8716 7.61077 27.0124 5.56942C30.3578 3.39476 37.7556 6.49536 45.5527 14.2688C46.0511 14.7657 46.5515 15.2857 47.0532 15.8237C44.1478 19.3267 41.2768 23.3146 38.5344 27.6603C33.8313 28.1498 29.3294 28.936 25.1902 29.9889C24.93 28.8135 24.6994 27.6587 24.5028 26.5297ZM67.6382 38.4891C66.6488 36.57 65.6329 34.6963 64.5973 32.8738C67.7879 33.3267 70.8449 33.9279 73.7157 34.6636C72.8538 37.765 71.7796 41.0077 70.5151 44.3319C69.608 42.3983 68.6486 40.4487 67.6382 38.4891ZM50.0477 19.2517C52.0181 21.6486 53.9914 24.3247 55.9323 27.2282C53.9765 27.1245 51.9964 27.0706 50 27.0706C48.0224 27.0706 46.057 27.1233 44.1132 27.2252C46.0561 24.3487 48.0465 21.6762 50.0477 19.2517ZM32.3445 38.5222C31.3561 40.4467 30.4145 42.3857 29.5216 44.3283C28.2776 41.0157 27.2133 37.7582 26.344 34.6128C29.1971 33.8959 32.2397 33.3097 35.41 32.8654C34.3598 34.7047 33.3356 36.5926 32.3445 38.5222ZM35.5013 67.1855C32.2258 66.7752 29.1375 66.2192 26.2851 65.5221C27.1683 62.3205 28.256 58.9935 29.5264 55.6095C30.4216 57.5507 31.3669 59.4905 32.3614 61.4192C33.3744 63.384 34.424 65.3086 35.5013 67.1855ZM50.1659 80.7952C48.1412 78.3424 46.1216 75.6291 44.1492 72.7106C46.0639 72.7949 48.016 72.8381 50 72.8381C52.0383 72.8381 54.0532 72.7865 56.0365 72.6874C54.0892 75.6585 52.123 78.3759 50.1659 80.7952ZM70.5558 55.437C71.8924 58.8576 73.0191 62.1672 73.9138 65.3142C71.0143 66.0569 67.8839 66.6551 64.5856 67.0995C65.6237 65.2524 66.6484 63.3466 67.6553 61.3862C68.674 59.4028 69.6413 57.4164 70.5558 55.437ZM63.9549 58.9899C62.3917 62.0331 60.7869 64.9383 59.1577 67.6805C56.1903 67.9188 53.1246 68.0415 50 68.0415C46.8881 68.0415 43.861 67.9329 40.9461 67.7205C39.2512 64.9423 37.6115 62.0285 36.0583 59.0161C34.5091 56.0118 33.0837 52.9822 31.7918 49.9695C33.0834 46.9498 34.5054 43.9168 36.0456 40.9179L36.0453 40.9185C37.5896 37.9117 39.2149 35.0121 40.8941 32.2513C43.8681 31.9989 46.9178 31.8672 49.9998 31.8672C53.0958 31.8672 56.1495 31.9999 59.1226 32.2545C60.7762 34.9951 62.3905 37.8853 63.9409 40.8925C65.5088 43.9336 66.9492 46.9464 68.2518 49.9013C66.9531 52.907 65.516 55.9503 63.9549 58.9899ZM72.7675 5.42672C76.1161 7.59498 77.4184 16.3396 75.3144 27.8064C75.1802 28.5381 75.0291 29.2834 74.865 30.0386C70.7162 28.9638 66.211 28.164 61.4943 27.6671C58.7465 23.2737 55.8991 19.2795 53.0409 15.8215C53.8093 14.9915 54.5767 14.2001 55.3409 13.4532C62.7235 6.23934 69.6236 3.39116 72.7675 5.42672ZM50 39.8281C54.9316 39.8281 58.9297 44.3169 58.9297 49.8544C58.9297 55.3917 54.9316 59.8807 50 59.8807C45.0684 59.8807 41.0703 55.3917 41.0703 49.8544C41.0703 44.3169 45.0684 39.8281 50 39.8281Z" fill="#00D8FF"/>
</g>
<defs>
<clipPath id="clip0_19_2">
<rect width="100" height="100" fill="white"/>
</clipPath>
</defs>
</svg>
