<svg width="100" height="100" viewBox="0 0 100 100" fill="none" xmlns="http://www.w3.org/2000/svg">
<g clip-path="url(#clip0_19_5)">
<path d="M0 50V100H50H100V50V0H50H0V50Z" fill="#007ACC"/>
<path d="M22.1137 50.3317L22.082 54.4269L28.5899 54.4269H35.0979V72.919V91.4111H39.701H44.3042V72.919L44.3042 54.4269H50.8121H57.3201V50.4111C57.3201 48.1889 57.2725 46.3317 57.209 46.2841C57.1614 46.2206 49.2407 46.1889 39.6375 46.2047L22.1614 46.2523L22.1137 50.3317Z" fill="white"/>
<path d="M80.6901 46.136C83.2298 46.771 85.1663 47.8979 86.9441 49.7392C87.8647 50.7233 89.2298 52.517 89.3409 52.9456C89.3726 53.0726 85.0234 55.9932 82.3885 57.6281C82.2933 57.6916 81.9123 57.2789 81.4837 56.644C80.198 54.771 78.8488 53.9614 76.7853 53.8186C73.7536 53.6122 71.8012 55.1995 71.8171 57.8503C71.8171 58.6281 71.9282 59.0884 72.2456 59.7234C72.9123 61.1043 74.1504 61.9297 78.0393 63.6122C85.198 66.6916 88.2615 68.7233 90.1663 71.6122C92.2933 74.8345 92.7694 79.9773 91.325 83.8027C89.7377 87.9614 85.8012 90.7868 80.2615 91.7233C78.5472 92.0249 74.4837 91.9773 72.6425 91.644C68.6266 90.9297 64.8171 88.9456 62.4679 86.3424C61.5472 85.3265 59.7536 82.6757 59.8647 82.4853C59.9123 82.4218 60.325 82.1678 60.7853 81.898C61.2298 81.644 62.9123 80.6757 64.4996 79.7551L67.3726 78.0884L67.9758 78.9773C68.8171 80.263 70.6583 82.0249 71.7695 82.6122C74.9599 84.2948 79.3409 84.0567 81.4996 82.1202C82.4202 81.2789 82.8012 80.4059 82.8012 79.1202C82.8012 77.9614 82.6583 77.4535 82.0552 76.5805C81.2774 75.4694 79.6901 74.5329 75.1821 72.5805C70.0234 70.3583 67.8012 68.9773 65.7695 66.7868C64.5948 65.517 63.4837 63.4853 63.0234 61.7868C62.6425 60.3741 62.5472 56.8345 62.8488 55.4059C63.9123 50.4218 67.6742 46.9456 73.1028 45.9138C74.8647 45.5805 78.9599 45.7075 80.6901 46.136Z" fill="white"/>
</g>
<defs>
<clipPath id="clip0_19_5">
<rect width="100" height="100" fill="white"/>
</clipPath>
</defs>
</svg>
